<?xml version="1.0" encoding="UTF-8"?>
<svg version="1.1" viewBox="0 0 2400 2400" width="1280" height="1280" xmlns="http://www.w3.org/2000/svg">
<path transform="translate(1312,369)" d="m0 0h7l8 6 5 4 8 10 8 14 7 21 9 39 13 64 12 56 24 115 8 38 15 71 9 43 14 67 9 41 10 48 9 42 22 104 17 80 16 76 19 91 11 55 5 26 9-1 26-6 197-50 64-16 81-20 43-10h10l3 3 4 18v10l-6 5-15 5-86 22-107 27-183 46-29 8-1 5 6 25 9 43 9 41 24 116 12 56 17 83 16 75 6 27 5 24 2 13v11l-4 4-2 1h-21l-6-3-4-4-3 7h-10l-14-5-29-16-43-24-23-13-26-14-21-12-23-13-36-20-21-12-54-30-46-26-22-12-21-12-20-11-18-10-24-14-35-19-21-12-16-9-23-13-25-14-21-12-18-10-22-12-18-10-9-7-2-3 1-5 5-8 9-9 2-12v-16l3-6 8-3 28-6 49-13 31-8 256-64 65-16 50-13 36-9h2l-3-20-10-48-9-43-7-33-9-44-9-41-12-59-7-31-10-50-8-37-8-39-6-27-10-49-7-32-9-44-7-32-9-43-8-38-16-75-9-42-8-37-10-48-16-78-10-53-3-7-2-1-13 25-8 16-8 15-9 16-13 24-12 22-12 23-6 11-9 16-7 14-9 16-6 11-12 23-10 18-6 11-13 25-13 23-7 14-10 18-10 19-12 22-16 30-9 16-14 26-24 44-9 15-6 12-5 6-3 2-7-1-6-2h-8l-4 3h-2v2l-6 5-5 6-9 2-8-6-6-8-15-29-10-19-21-41-10-19-28-56-10-19-24-48-10-19-19-38-10-19-21-42-10-19-24-48-10-19-33-66-10-19-11-20-4-2v8l2 1-2 1-5 36-5 30-10 74-10 66-7 51-10 68-10 69-10 71-12 83-19 133-12 82-8 58-9 63-9 64-7 48-10 69-8 53-2 5-2 1-18-1-13-2-6-4-1-5 2-20 7-47 6-43 10-69 6-43 9-64 5-33 8-58 9-60 7-52 7-45 9-67 8-52 8-60 6-38 10-73 7-46 7-53 9-60 8-62 10-63 5-40 3-5 2-1 21-2 12-3 11-7 8-4 8 3 7 8 38 76 14 27 18 36 17 33 14 27 8 16 8 15 23 46 10 19 12 23 38 76 13 25 16 32 18 35 10 19 11 23 10 20 3 2 7-11 26-52 9-16 8-16 9-16 13-24 12-22 6-10 7-14 10-18 17-32 7-12 8-16 15-28 24-44 20-36 7-14 8-14 12-23 12-22 15-29 15-28 15-27 12-23 10-18 9-10zm4 68m224 1094-119 30-127 32-123 31-65 16-30 7-43 9 4 4 15 10 23 13 17 10 50 27 22 12 16 9 28 16 27 15 21 12 27 15 92 52 24 13 16 9 18 10 21 12 23 13 28 16 44 24 12 7 35 19 15 9 19 11 12 7 6 5-3-17-11-47-14-68-11-54-9-40-7-35-10-46-17-82-14-72-2-10-3-4z" fill="#fff"/>
</svg>
